<svg xmlns="http://www.w3.org/2000/svg" xmlns:xlink="http://www.w3.org/1999/xlink" width="400" zoomAndPan="magnify" viewBox="0 0 300 299.999988" height="400" preserveAspectRatio="xMidYMid meet" version="1.0"><defs><clipPath id="5d253b1180"><path d="M 52.5 0 L 247.5 0 C 261.425781 0 274.777344 5.53125 284.625 15.375 C 294.46875 25.222656 300 38.574219 300 52.5 L 300 247.5 C 300 261.425781 294.46875 274.777344 284.625 284.625 C 274.777344 294.46875 261.425781 300 247.5 300 L 52.5 300 C 38.574219 300 25.222656 294.46875 15.375 284.625 C 5.53125 274.777344 0 261.425781 0 247.5 L 0 52.5 C 0 38.574219 5.53125 25.222656 15.375 15.375 C 25.222656 5.53125 38.574219 0 52.5 0 Z M 52.5 0 " clip-rule="nonzero"/></clipPath><clipPath id="31821d2b84"><path d="M 0 0 L 300 0 L 300 300 L 0 300 Z M 0 0 " clip-rule="nonzero"/></clipPath><clipPath id="f68778319f"><path d="M 52.5 0 L 247.5 0 C 261.425781 0 274.777344 5.53125 284.625 15.375 C 294.46875 25.222656 300 38.574219 300 52.5 L 300 247.5 C 300 261.425781 294.46875 274.777344 284.625 284.625 C 274.777344 294.46875 261.425781 300 247.5 300 L 52.5 300 C 38.574219 300 25.222656 294.46875 15.375 284.625 C 5.53125 274.777344 0 261.425781 0 247.5 L 0 52.5 C 0 38.574219 5.53125 25.222656 15.375 15.375 C 25.222656 5.53125 38.574219 0 52.5 0 Z M 52.5 0 " clip-rule="nonzero"/></clipPath><linearGradient x1="0" gradientTransform="matrix(1.171875, 0, 0, 1.171875, 0.000006, 0.000000000000053291)" y1="128" x2="255.999999" gradientUnits="userSpaceOnUse" y2="128" id="58dddd417f"><stop stop-opacity="1" stop-color="rgb(97.648621%, 43.919373%, 8.239746%)" offset="0"/><stop stop-opacity="1" stop-color="rgb(97.660828%, 44.065857%, 8.337402%)" offset="0.015625"/><stop stop-opacity="1" stop-color="rgb(97.685242%, 44.360352%, 8.532715%)" offset="0.03125"/><stop stop-opacity="1" stop-color="rgb(97.711182%, 44.654846%, 8.728027%)" offset="0.046875"/><stop stop-opacity="1" stop-color="rgb(97.735596%, 44.947815%, 8.924866%)" offset="0.0625"/><stop stop-opacity="1" stop-color="rgb(97.76001%, 45.24231%, 9.120178%)" offset="0.078125"/><stop stop-opacity="1" stop-color="rgb(97.784424%, 45.536804%, 9.317017%)" offset="0.09375"/><stop stop-opacity="1" stop-color="rgb(97.808838%, 45.831299%, 9.512329%)" offset="0.109375"/><stop stop-opacity="1" stop-color="rgb(97.833252%, 46.125793%, 9.709167%)" offset="0.125"/><stop stop-opacity="1" stop-color="rgb(97.857666%, 46.418762%, 9.90448%)" offset="0.140625"/><stop stop-opacity="1" stop-color="rgb(97.88208%, 46.713257%, 10.099792%)" offset="0.15625"/><stop stop-opacity="1" stop-color="rgb(97.906494%, 47.007751%, 10.296631%)" offset="0.171875"/><stop stop-opacity="1" stop-color="rgb(97.930908%, 47.302246%, 10.491943%)" offset="0.1875"/><stop stop-opacity="1" stop-color="rgb(97.955322%, 47.596741%, 10.688782%)" offset="0.203125"/><stop stop-opacity="1" stop-color="rgb(97.979736%, 47.891235%, 10.884094%)" offset="0.21875"/><stop stop-opacity="1" stop-color="rgb(98.00415%, 48.184204%, 11.079407%)" offset="0.234375"/><stop stop-opacity="1" stop-color="rgb(98.03009%, 48.478699%, 11.276245%)" offset="0.25"/><stop stop-opacity="1" stop-color="rgb(98.054504%, 48.773193%, 11.471558%)" offset="0.265625"/><stop stop-opacity="1" stop-color="rgb(98.078918%, 49.067688%, 11.668396%)" offset="0.28125"/><stop stop-opacity="1" stop-color="rgb(98.103333%, 49.362183%, 11.863708%)" offset="0.296875"/><stop stop-opacity="1" stop-color="rgb(98.127747%, 49.655151%, 12.059021%)" offset="0.3125"/><stop stop-opacity="1" stop-color="rgb(98.152161%, 49.949646%, 12.255859%)" offset="0.328125"/><stop stop-opacity="1" stop-color="rgb(98.176575%, 50.244141%, 12.451172%)" offset="0.34375"/><stop stop-opacity="1" stop-color="rgb(98.200989%, 50.538635%, 12.64801%)" offset="0.359375"/><stop stop-opacity="1" stop-color="rgb(98.225403%, 50.83313%, 12.843323%)" offset="0.375"/><stop stop-opacity="1" stop-color="rgb(98.249817%, 51.127625%, 13.038635%)" offset="0.390625"/><stop stop-opacity="1" stop-color="rgb(98.274231%, 51.420593%, 13.235474%)" offset="0.40625"/><stop stop-opacity="1" stop-color="rgb(98.298645%, 51.715088%, 13.430786%)" offset="0.421875"/><stop stop-opacity="1" stop-color="rgb(98.323059%, 52.009583%, 13.627625%)" offset="0.4375"/><stop stop-opacity="1" stop-color="rgb(98.348999%, 52.304077%, 13.822937%)" offset="0.453125"/><stop stop-opacity="1" stop-color="rgb(98.373413%, 52.598572%, 14.019775%)" offset="0.46875"/><stop stop-opacity="1" stop-color="rgb(98.397827%, 52.891541%, 14.215088%)" offset="0.484375"/><stop stop-opacity="1" stop-color="rgb(98.422241%, 53.186035%, 14.4104%)" offset="0.5"/><stop stop-opacity="1" stop-color="rgb(98.446655%, 53.48053%, 14.607239%)" offset="0.515625"/><stop stop-opacity="1" stop-color="rgb(98.471069%, 53.775024%, 14.802551%)" offset="0.53125"/><stop stop-opacity="1" stop-color="rgb(98.495483%, 54.069519%, 14.99939%)" offset="0.546875"/><stop stop-opacity="1" stop-color="rgb(98.519897%, 54.364014%, 15.194702%)" offset="0.5625"/><stop stop-opacity="1" stop-color="rgb(98.544312%, 54.656982%, 15.390015%)" offset="0.578125"/><stop stop-opacity="1" stop-color="rgb(98.568726%, 54.951477%, 15.586853%)" offset="0.59375"/><stop stop-opacity="1" stop-color="rgb(98.59314%, 55.245972%, 15.782166%)" offset="0.609375"/><stop stop-opacity="1" stop-color="rgb(98.617554%, 55.540466%, 15.979004%)" offset="0.625"/><stop stop-opacity="1" stop-color="rgb(98.641968%, 55.834961%, 16.174316%)" offset="0.640625"/><stop stop-opacity="1" stop-color="rgb(98.667908%, 56.12793%, 16.369629%)" offset="0.65625"/><stop stop-opacity="1" stop-color="rgb(98.692322%, 56.422424%, 16.566467%)" offset="0.671875"/><stop stop-opacity="1" stop-color="rgb(98.716736%, 56.716919%, 16.76178%)" offset="0.6875"/><stop stop-opacity="1" stop-color="rgb(98.74115%, 57.011414%, 16.958618%)" offset="0.703125"/><stop stop-opacity="1" stop-color="rgb(98.765564%, 57.305908%, 17.153931%)" offset="0.71875"/><stop stop-opacity="1" stop-color="rgb(98.789978%, 57.600403%, 17.350769%)" offset="0.734375"/><stop stop-opacity="1" stop-color="rgb(98.814392%, 57.893372%, 17.546082%)" offset="0.75"/><stop stop-opacity="1" stop-color="rgb(98.838806%, 58.187866%, 17.741394%)" offset="0.765625"/><stop stop-opacity="1" stop-color="rgb(98.86322%, 58.482361%, 17.938232%)" offset="0.78125"/><stop stop-opacity="1" stop-color="rgb(98.887634%, 58.776855%, 18.133545%)" offset="0.796875"/><stop stop-opacity="1" stop-color="rgb(98.912048%, 59.07135%, 18.330383%)" offset="0.8125"/><stop stop-opacity="1" stop-color="rgb(98.936462%, 59.365845%, 18.525696%)" offset="0.828125"/><stop stop-opacity="1" stop-color="rgb(98.960876%, 59.658813%, 18.721008%)" offset="0.84375"/><stop stop-opacity="1" stop-color="rgb(98.986816%, 59.953308%, 18.917847%)" offset="0.859375"/><stop stop-opacity="1" stop-color="rgb(99.01123%, 60.247803%, 19.113159%)" offset="0.875"/><stop stop-opacity="1" stop-color="rgb(99.035645%, 60.542297%, 19.309998%)" offset="0.890625"/><stop stop-opacity="1" stop-color="rgb(99.060059%, 60.836792%, 19.50531%)" offset="0.90625"/><stop stop-opacity="1" stop-color="rgb(99.084473%, 61.129761%, 19.700623%)" offset="0.921875"/><stop stop-opacity="1" stop-color="rgb(99.108887%, 61.424255%, 19.897461%)" offset="0.9375"/><stop stop-opacity="1" stop-color="rgb(99.133301%, 61.71875%, 20.092773%)" offset="0.953125"/><stop stop-opacity="1" stop-color="rgb(99.157715%, 62.013245%, 20.289612%)" offset="0.96875"/><stop stop-opacity="1" stop-color="rgb(99.182129%, 62.307739%, 20.484924%)" offset="0.984375"/><stop stop-opacity="1" stop-color="rgb(99.206543%, 62.602234%, 20.680237%)" offset="1"/></linearGradient><clipPath id="3f0f7c1ce2"><rect x="0" width="300" y="0" height="300"/></clipPath><clipPath id="88e152bb87"><path d="M 62.390625 64 L 237.890625 64 L 237.890625 236.3125 L 62.390625 236.3125 Z M 62.390625 64 " clip-rule="nonzero"/></clipPath><clipPath id="ff425d76e3"><path d="M 52.5 0 L 247.5 0 C 261.425781 0 274.777344 5.53125 284.625 15.375 C 294.46875 25.222656 300 38.574219 300 52.5 L 300 247.5 C 300 261.425781 294.46875 274.777344 284.625 284.625 C 274.777344 294.46875 261.425781 300 247.5 300 L 52.5 300 C 38.574219 300 25.222656 294.46875 15.375 284.625 C 5.53125 274.777344 0 261.425781 0 247.5 L 0 52.5 C 0 38.574219 5.53125 25.222656 15.375 15.375 C 25.222656 5.53125 38.574219 0 52.5 0 Z M 52.5 0 " clip-rule="nonzero"/></clipPath><clipPath id="9f2b994e38"><path d="M 59.917969 61.378906 L 239.917969 61.378906 L 239.917969 238.378906 L 59.917969 238.378906 Z M 59.917969 61.378906 " clip-rule="nonzero"/></clipPath><clipPath id="3511c7b734"><path d="M 64.171875 66 L 235.921875 66 L 235.921875 234.316406 L 64.171875 234.316406 Z M 64.171875 66 " clip-rule="nonzero"/></clipPath></defs><g clip-path="url(#5d253b1180)"><g transform="matrix(1, 0, 0, 1, 0, 0)"><g clip-path="url(#3f0f7c1ce2)"><g clip-path="url(#31821d2b84)"><g clip-path="url(#f68778319f)"><rect x="-66" fill="url(#58dddd417f)" width="432" height="431.999983" y="-65.999997"/></g></g></g></g></g><g clip-path="url(#88e152bb87)"><path fill="#ffffff" d="M 221.558594 87.183594 L 204.09375 87.183594 L 204.09375 73.582031 C 204.105469 72.976562 204.058594 72.375 203.949219 71.777344 C 203.84375 71.183594 203.675781 70.601562 203.453125 70.039062 C 203.230469 69.476562 202.953125 68.941406 202.625 68.433594 C 202.292969 67.925781 201.917969 67.453125 201.492188 67.023438 C 201.070312 66.589844 200.605469 66.203125 200.105469 65.863281 C 199.601562 65.523438 199.074219 65.234375 198.515625 65 C 197.957031 64.765625 197.378906 64.585938 196.785156 64.46875 C 196.191406 64.347656 195.59375 64.289062 194.988281 64.289062 C 194.378906 64.289062 193.78125 64.347656 193.1875 64.46875 C 192.59375 64.585938 192.015625 64.765625 191.457031 65 C 190.898438 65.234375 190.371094 65.523438 189.867188 65.863281 C 189.367188 66.203125 188.90625 66.589844 188.480469 67.023438 C 188.058594 67.453125 187.679688 67.925781 187.347656 68.433594 C 187.019531 68.941406 186.742188 69.476562 186.519531 70.039062 C 186.296875 70.601562 186.128906 71.183594 186.023438 71.777344 C 185.914062 72.375 185.867188 72.976562 185.878906 73.582031 L 185.878906 87.183594 L 114.132812 87.183594 L 114.132812 73.582031 C 114.144531 72.976562 114.097656 72.375 113.988281 71.777344 C 113.882812 71.183594 113.714844 70.601562 113.492188 70.039062 C 113.269531 69.476562 112.992188 68.941406 112.664062 68.433594 C 112.332031 67.925781 111.957031 67.453125 111.53125 67.023438 C 111.105469 66.589844 110.644531 66.203125 110.144531 65.863281 C 109.640625 65.523438 109.113281 65.234375 108.554688 65 C 107.996094 64.765625 107.417969 64.589844 106.824219 64.46875 C 106.230469 64.347656 105.632812 64.289062 105.023438 64.289062 C 104.417969 64.289062 103.820312 64.347656 103.226562 64.46875 C 102.632812 64.589844 102.054688 64.765625 101.496094 65 C 100.9375 65.234375 100.410156 65.523438 99.90625 65.863281 C 99.40625 66.203125 98.945312 66.589844 98.519531 67.023438 C 98.09375 67.453125 97.71875 67.925781 97.386719 68.433594 C 97.058594 68.941406 96.78125 69.476562 96.558594 70.039062 C 96.335938 70.601562 96.167969 71.183594 96.0625 71.777344 C 95.953125 72.375 95.90625 72.976562 95.917969 73.582031 L 95.917969 87.183594 L 78.453125 87.183594 C 77.929688 87.183594 77.402344 87.210938 76.878906 87.261719 C 76.355469 87.316406 75.835938 87.394531 75.320312 87.496094 C 74.804688 87.597656 74.296875 87.726562 73.792969 87.878906 C 73.289062 88.035156 72.792969 88.210938 72.308594 88.414062 C 71.824219 88.613281 71.347656 88.839844 70.882812 89.085938 C 70.421875 89.335938 69.96875 89.605469 69.53125 89.898438 C 69.09375 90.191406 68.671875 90.503906 68.265625 90.835938 C 67.859375 91.171875 67.472656 91.523438 67.097656 91.898438 C 66.726562 92.269531 66.375 92.65625 66.039062 93.066406 C 65.707031 93.472656 65.394531 93.894531 65.101562 94.332031 C 64.808594 94.769531 64.539062 95.21875 64.289062 95.683594 C 64.042969 96.148438 63.816406 96.621094 63.617188 97.109375 C 63.414062 97.59375 63.238281 98.089844 63.085938 98.589844 C 62.929688 99.09375 62.804688 99.605469 62.699219 100.121094 C 62.597656 100.636719 62.519531 101.15625 62.46875 101.679688 C 62.414062 102.203125 62.390625 102.726562 62.390625 103.253906 L 62.390625 220.042969 C 62.390625 220.566406 62.417969 221.09375 62.46875 221.617188 C 62.519531 222.140625 62.597656 222.660156 62.699219 223.175781 C 62.804688 223.691406 62.933594 224.199219 63.085938 224.703125 C 63.238281 225.207031 63.414062 225.699219 63.617188 226.1875 C 63.820312 226.671875 64.042969 227.148438 64.292969 227.613281 C 64.539062 228.074219 64.808594 228.527344 65.101562 228.964844 C 65.394531 229.398438 65.707031 229.820312 66.042969 230.230469 C 66.375 230.636719 66.726562 231.023438 67.101562 231.398438 C 67.472656 231.769531 67.863281 232.121094 68.269531 232.453125 C 68.675781 232.789062 69.097656 233.101562 69.535156 233.394531 C 69.972656 233.6875 70.421875 233.957031 70.886719 234.203125 C 71.347656 234.453125 71.824219 234.679688 72.308594 234.878906 C 72.796875 235.082031 73.289062 235.257812 73.792969 235.410156 C 74.296875 235.566406 74.804688 235.691406 75.320312 235.796875 C 75.835938 235.898438 76.355469 235.976562 76.878906 236.027344 C 77.402344 236.082031 77.929688 236.105469 78.453125 236.109375 L 221.558594 236.109375 C 222.082031 236.105469 222.609375 236.082031 223.132812 236.027344 C 223.65625 235.976562 224.175781 235.898438 224.691406 235.796875 C 225.207031 235.691406 225.714844 235.566406 226.21875 235.410156 C 226.722656 235.257812 227.214844 235.082031 227.703125 234.878906 C 228.1875 234.679688 228.664062 234.453125 229.125 234.203125 C 229.589844 233.957031 230.042969 233.6875 230.476562 233.394531 C 230.914062 233.101562 231.335938 232.789062 231.742188 232.453125 C 232.152344 232.121094 232.539062 231.769531 232.910156 231.398438 C 233.285156 231.023438 233.636719 230.636719 233.96875 230.230469 C 234.304688 229.820312 234.617188 229.398438 234.910156 228.964844 C 235.203125 228.527344 235.472656 228.074219 235.71875 227.613281 C 235.96875 227.148438 236.191406 226.671875 236.394531 226.1875 C 236.597656 225.699219 236.773438 225.207031 236.925781 224.703125 C 237.078125 224.199219 237.207031 223.691406 237.3125 223.175781 C 237.414062 222.660156 237.492188 222.140625 237.542969 221.617188 C 237.597656 221.09375 237.621094 220.566406 237.621094 220.042969 L 237.621094 103.253906 C 237.621094 102.726562 237.597656 102.203125 237.542969 101.679688 C 237.492188 101.15625 237.414062 100.636719 237.3125 100.121094 C 237.207031 99.605469 237.082031 99.09375 236.925781 98.589844 C 236.773438 98.089844 236.597656 97.59375 236.394531 97.109375 C 236.195312 96.621094 235.96875 96.148438 235.722656 95.683594 C 235.472656 95.21875 235.203125 94.769531 234.910156 94.332031 C 234.617188 93.894531 234.304688 93.472656 233.972656 93.066406 C 233.636719 92.65625 233.285156 92.269531 232.914062 91.898438 C 232.542969 91.523438 232.152344 91.171875 231.746094 90.835938 C 231.339844 90.503906 230.917969 90.191406 230.480469 89.898438 C 230.042969 89.605469 229.589844 89.335938 229.128906 89.085938 C 228.664062 88.839844 228.1875 88.613281 227.703125 88.414062 C 227.21875 88.210938 226.722656 88.035156 226.21875 87.878906 C 225.714844 87.726562 225.207031 87.597656 224.691406 87.496094 C 224.175781 87.394531 223.65625 87.316406 223.132812 87.261719 C 222.609375 87.210938 222.082031 87.183594 221.558594 87.183594 Z M 189.203125 73.582031 C 189.203125 73.203125 189.242188 72.824219 189.316406 72.453125 C 189.390625 72.082031 189.5 71.71875 189.648438 71.367188 C 189.792969 71.015625 189.96875 70.683594 190.179688 70.367188 C 190.390625 70.050781 190.632812 69.757812 190.898438 69.492188 C 191.167969 69.222656 191.460938 68.980469 191.777344 68.769531 C 192.09375 68.558594 192.425781 68.378906 192.777344 68.234375 C 193.125 68.089844 193.488281 67.976562 193.859375 67.902344 C 194.234375 67.828125 194.609375 67.789062 194.988281 67.789062 C 195.367188 67.789062 195.746094 67.828125 196.117188 67.902344 C 196.492188 67.976562 196.851562 68.085938 197.203125 68.230469 C 197.554688 68.378906 197.886719 68.554688 198.203125 68.765625 C 198.519531 68.976562 198.8125 69.21875 199.082031 69.488281 C 199.351562 69.757812 199.589844 70.046875 199.800781 70.363281 C 200.011719 70.679688 200.191406 71.015625 200.335938 71.367188 C 200.480469 71.71875 200.589844 72.078125 200.664062 72.453125 C 200.738281 72.824219 200.777344 73.199219 200.777344 73.582031 L 200.777344 93.652344 C 200.785156 94.039062 200.757812 94.425781 200.691406 94.804688 C 200.625 95.183594 200.519531 95.554688 200.378906 95.914062 C 200.238281 96.273438 200.0625 96.617188 199.851562 96.941406 C 199.644531 97.265625 199.402344 97.566406 199.132812 97.84375 C 198.863281 98.121094 198.570312 98.367188 198.25 98.585938 C 197.929688 98.804688 197.59375 98.988281 197.238281 99.136719 C 196.878906 99.285156 196.511719 99.398438 196.132812 99.476562 C 195.753906 99.554688 195.375 99.59375 194.988281 99.59375 C 194.601562 99.59375 194.21875 99.554688 193.839844 99.476562 C 193.460938 99.398438 193.09375 99.285156 192.738281 99.136719 C 192.378906 98.988281 192.042969 98.804688 191.722656 98.585938 C 191.40625 98.367188 191.109375 98.121094 190.839844 97.84375 C 190.570312 97.566406 190.332031 97.265625 190.121094 96.941406 C 189.910156 96.617188 189.734375 96.273438 189.59375 95.914062 C 189.453125 95.554688 189.351562 95.183594 189.28125 94.804688 C 189.214844 94.425781 189.1875 94.039062 189.195312 93.652344 L 189.195312 73.582031 Z M 99.253906 73.582031 C 99.246094 73.195312 99.273438 72.8125 99.339844 72.429688 C 99.40625 72.050781 99.511719 71.679688 99.652344 71.320312 C 99.792969 70.960938 99.96875 70.617188 100.179688 70.292969 C 100.386719 69.96875 100.628906 69.667969 100.898438 69.390625 C 101.167969 69.117188 101.460938 68.867188 101.78125 68.652344 C 102.101562 68.433594 102.4375 68.25 102.792969 68.097656 C 103.148438 67.949219 103.515625 67.835938 103.894531 67.757812 C 104.273438 67.683594 104.65625 67.644531 105.042969 67.644531 C 105.429688 67.644531 105.8125 67.683594 106.191406 67.757812 C 106.570312 67.835938 106.9375 67.949219 107.292969 68.097656 C 107.648438 68.25 107.988281 68.433594 108.308594 68.652344 C 108.625 68.867188 108.921875 69.117188 109.191406 69.390625 C 109.460938 69.667969 109.699219 69.96875 109.910156 70.292969 C 110.117188 70.617188 110.292969 70.960938 110.433594 71.320312 C 110.578125 71.679688 110.679688 72.050781 110.746094 72.429688 C 110.816406 72.8125 110.84375 73.195312 110.832031 73.582031 L 110.832031 93.652344 C 110.84375 94.039062 110.816406 94.425781 110.746094 94.804688 C 110.679688 95.183594 110.578125 95.554688 110.433594 95.914062 C 110.292969 96.273438 110.117188 96.617188 109.910156 96.941406 C 109.699219 97.265625 109.460938 97.566406 109.191406 97.84375 C 108.921875 98.121094 108.625 98.367188 108.308594 98.585938 C 107.988281 98.804688 107.648438 98.988281 107.292969 99.136719 C 106.9375 99.285156 106.570312 99.398438 106.191406 99.476562 C 105.8125 99.554688 105.429688 99.589844 105.042969 99.589844 C 104.65625 99.589844 104.273438 99.554688 103.894531 99.476562 C 103.515625 99.398438 103.148438 99.285156 102.792969 99.136719 C 102.4375 98.988281 102.101562 98.804688 101.78125 98.585938 C 101.460938 98.367188 101.167969 98.121094 100.898438 97.84375 C 100.628906 97.566406 100.386719 97.265625 100.179688 96.941406 C 99.96875 96.617188 99.792969 96.273438 99.652344 95.914062 C 99.511719 95.554688 99.40625 95.183594 99.339844 94.804688 C 99.273438 94.425781 99.246094 94.039062 99.253906 93.652344 Z M 65.707031 103.253906 C 65.707031 102.417969 65.789062 101.589844 65.953125 100.765625 C 66.117188 99.945312 66.359375 99.148438 66.679688 98.375 C 67 97.601562 67.394531 96.867188 67.859375 96.171875 C 68.324219 95.476562 68.851562 94.832031 69.445312 94.242188 C 70.035156 93.648438 70.679688 93.121094 71.375 92.65625 C 72.070312 92.191406 72.804688 91.796875 73.578125 91.476562 C 74.351562 91.15625 75.148438 90.914062 75.96875 90.75 C 76.789062 90.585938 77.617188 90.503906 78.453125 90.503906 L 95.9375 90.503906 L 95.9375 93.652344 C 95.925781 94.261719 95.972656 94.859375 96.078125 95.457031 C 96.1875 96.054688 96.351562 96.632812 96.578125 97.195312 C 96.800781 97.757812 97.078125 98.292969 97.40625 98.800781 C 97.738281 99.3125 98.113281 99.78125 98.539062 100.214844 C 98.960938 100.644531 99.425781 101.03125 99.925781 101.375 C 100.425781 101.714844 100.957031 102 101.515625 102.234375 C 102.074219 102.46875 102.648438 102.648438 103.246094 102.765625 C 103.839844 102.886719 104.4375 102.945312 105.042969 102.945312 C 105.648438 102.945312 106.25 102.886719 106.84375 102.765625 C 107.4375 102.648438 108.011719 102.46875 108.570312 102.234375 C 109.128906 102 109.660156 101.714844 110.160156 101.375 C 110.664062 101.03125 111.125 100.644531 111.550781 100.214844 C 111.972656 99.78125 112.351562 99.3125 112.679688 98.800781 C 113.011719 98.292969 113.289062 97.757812 113.511719 97.195312 C 113.734375 96.632812 113.898438 96.054688 114.007812 95.457031 C 114.117188 94.859375 114.164062 94.261719 114.152344 93.652344 L 114.152344 90.503906 L 185.886719 90.503906 L 185.886719 93.652344 C 185.875 94.261719 185.921875 94.859375 186.03125 95.457031 C 186.136719 96.054688 186.304688 96.632812 186.527344 97.195312 C 186.75 97.757812 187.027344 98.292969 187.355469 98.800781 C 187.6875 99.3125 188.0625 99.78125 188.488281 100.214844 C 188.914062 100.644531 189.375 101.03125 189.875 101.375 C 190.378906 101.714844 190.90625 102 191.464844 102.234375 C 192.023438 102.46875 192.601562 102.648438 193.195312 102.765625 C 193.789062 102.886719 194.386719 102.945312 194.992188 102.945312 C 195.601562 102.945312 196.199219 102.886719 196.792969 102.765625 C 197.386719 102.648438 197.964844 102.46875 198.523438 102.234375 C 199.082031 102 199.609375 101.714844 200.113281 101.375 C 200.613281 101.03125 201.074219 100.644531 201.5 100.214844 C 201.921875 99.78125 202.300781 99.3125 202.632812 98.800781 C 202.960938 98.292969 203.238281 97.757812 203.460938 97.195312 C 203.683594 96.632812 203.851562 96.054688 203.957031 95.457031 C 204.066406 94.859375 204.113281 94.261719 204.101562 93.652344 L 204.101562 90.503906 L 221.5625 90.503906 C 222.402344 90.503906 223.230469 90.585938 224.050781 90.75 C 224.871094 90.914062 225.667969 91.15625 226.441406 91.476562 C 227.214844 91.796875 227.949219 92.191406 228.644531 92.65625 C 229.339844 93.121094 229.984375 93.648438 230.574219 94.242188 C 231.167969 94.832031 231.695312 95.476562 232.160156 96.171875 C 232.625 96.867188 233.019531 97.601562 233.339844 98.375 C 233.660156 99.148438 233.902344 99.945312 234.066406 100.765625 C 234.230469 101.589844 234.3125 102.417969 234.3125 103.253906 L 234.3125 121.167969 L 65.707031 121.167969 Z M 221.558594 232.773438 L 78.453125 232.773438 C 77.617188 232.773438 76.789062 232.691406 75.972656 232.527344 C 75.152344 232.363281 74.355469 232.121094 73.582031 231.800781 C 72.808594 231.480469 72.074219 231.089844 71.378906 230.625 C 70.683594 230.160156 70.042969 229.632812 69.449219 229.042969 C 68.859375 228.449219 68.332031 227.808594 67.863281 227.113281 C 67.398438 226.417969 67.007812 225.683594 66.6875 224.914062 C 66.363281 224.140625 66.121094 223.34375 65.957031 222.527344 C 65.792969 221.707031 65.710938 220.878906 65.707031 220.042969 L 65.707031 124.484375 L 234.304688 124.484375 L 234.304688 220.042969 C 234.304688 220.878906 234.21875 221.707031 234.054688 222.527344 C 233.890625 223.34375 233.648438 224.140625 233.328125 224.914062 C 233.003906 225.683594 232.613281 226.417969 232.148438 227.113281 C 231.683594 227.808594 231.152344 228.449219 230.5625 229.042969 C 229.96875 229.632812 229.328125 230.160156 228.632812 230.625 C 227.9375 231.089844 227.203125 231.480469 226.429688 231.800781 C 225.65625 232.121094 224.859375 232.363281 224.042969 232.527344 C 223.222656 232.691406 222.394531 232.773438 221.558594 232.773438 Z M 221.558594 232.773438 " fill-opacity="1" fill-rule="nonzero"/></g><g clip-path="url(#ff425d76e3)"><path stroke-linecap="butt" transform="matrix(0.75, 0, 0, 0.75, 0.000006, 0.000000000000042633)" fill="none" stroke-linejoin="miter" d="M 70.000002 -0.000000000000056843 L 330.00004 -0.000000000000056843 C 348.567751 -0.000000000000056843 366.369837 7.375001 379.500047 20.500003 C 392.625049 33.630213 400.00005 51.432299 400.00005 70.00001 L 400.00005 330.000048 C 400.00005 348.567759 392.625049 366.369845 379.500047 379.500055 C 366.369837 392.625057 348.567751 400.000058 330.00004 400.000058 L 70.000002 400.000058 C 51.432291 400.000058 33.630205 392.625057 20.499995 379.500055 C 7.374993 366.369845 -0.000008 348.567759 -0.000008 330.000048 L -0.000008 70.00001 C -0.000008 51.432299 7.374993 33.630213 20.499995 20.500003 C 33.630205 7.375001 51.432291 -0.000000000000056843 70.000002 -0.000000000000056843 Z M 70.000002 -0.000000000000056843 " stroke="#000000" stroke-width="12" stroke-opacity="1" stroke-miterlimit="4"/></g><g clip-path="url(#9f2b994e38)"><path fill="#ffffff" d="M 223.578125 85.410156 L 205.621094 85.410156 L 205.621094 71.425781 C 205.632812 70.800781 205.585938 70.183594 205.472656 69.570312 C 205.363281 68.957031 205.191406 68.359375 204.964844 67.78125 C 204.734375 67.203125 204.449219 66.652344 204.109375 66.128906 C 203.769531 65.609375 203.382812 65.125 202.945312 64.679688 C 202.511719 64.234375 202.035156 63.835938 201.519531 63.488281 C 201.003906 63.136719 200.457031 62.839844 199.882812 62.601562 C 199.308594 62.359375 198.71875 62.175781 198.105469 62.054688 C 197.496094 61.929688 196.878906 61.867188 196.257812 61.867188 C 195.632812 61.867188 195.015625 61.929688 194.40625 62.054688 C 193.796875 62.175781 193.203125 62.359375 192.628906 62.601562 C 192.054688 62.839844 191.507812 63.136719 190.996094 63.488281 C 190.480469 63.835938 190.003906 64.234375 189.566406 64.679688 C 189.132812 65.125 188.742188 65.609375 188.402344 66.128906 C 188.0625 66.652344 187.78125 67.203125 187.550781 67.78125 C 187.320312 68.359375 187.148438 68.957031 187.039062 69.570312 C 186.929688 70.183594 186.878906 70.800781 186.890625 71.425781 L 186.890625 85.410156 L 113.121094 85.410156 L 113.121094 71.425781 C 113.132812 70.800781 113.085938 70.183594 112.972656 69.570312 C 112.863281 68.957031 112.691406 68.359375 112.460938 67.78125 C 112.234375 67.203125 111.949219 66.652344 111.609375 66.128906 C 111.269531 65.609375 110.882812 65.125 110.445312 64.679688 C 110.007812 64.234375 109.535156 63.835938 109.019531 63.488281 C 108.503906 63.136719 107.957031 62.839844 107.382812 62.601562 C 106.808594 62.359375 106.21875 62.175781 105.605469 62.054688 C 104.996094 61.929688 104.378906 61.867188 103.757812 61.867188 C 103.132812 61.867188 102.515625 61.929688 101.90625 62.054688 C 101.296875 62.175781 100.703125 62.359375 100.128906 62.601562 C 99.554688 62.839844 99.007812 63.136719 98.492188 63.488281 C 97.980469 63.835938 97.503906 64.234375 97.066406 64.679688 C 96.628906 65.125 96.242188 65.609375 95.902344 66.128906 C 95.5625 66.652344 95.28125 67.203125 95.050781 67.78125 C 94.820312 68.359375 94.648438 68.957031 94.539062 69.570312 C 94.429688 70.183594 94.378906 70.800781 94.390625 71.425781 L 94.390625 85.410156 L 76.4375 85.410156 C 75.894531 85.410156 75.355469 85.4375 74.816406 85.492188 C 74.277344 85.546875 73.746094 85.625 73.214844 85.730469 C 72.683594 85.835938 72.160156 85.96875 71.640625 86.125 C 71.125 86.285156 70.617188 86.464844 70.117188 86.671875 C 69.617188 86.882812 69.128906 87.113281 68.652344 87.367188 C 68.175781 87.621094 67.710938 87.902344 67.261719 88.203125 C 66.8125 88.503906 66.378906 88.824219 65.960938 89.167969 C 65.542969 89.511719 65.140625 89.875 64.757812 90.257812 C 64.375 90.640625 64.015625 91.039062 63.671875 91.457031 C 63.328125 91.875 63.003906 92.308594 62.707031 92.757812 C 62.40625 93.207031 62.125 93.671875 61.871094 94.148438 C 61.617188 94.625 61.386719 95.113281 61.179688 95.613281 C 60.972656 96.113281 60.789062 96.621094 60.632812 97.140625 C 60.472656 97.65625 60.34375 98.179688 60.238281 98.710938 C 60.128906 99.242188 60.050781 99.777344 59.996094 100.316406 C 59.945312 100.851562 59.917969 101.394531 59.917969 101.933594 L 59.917969 222.019531 C 59.917969 222.558594 59.945312 223.097656 59.996094 223.636719 C 60.050781 224.175781 60.132812 224.707031 60.238281 225.238281 C 60.34375 225.769531 60.476562 226.292969 60.632812 226.8125 C 60.789062 227.328125 60.972656 227.835938 61.179688 228.335938 C 61.386719 228.835938 61.617188 229.324219 61.871094 229.800781 C 62.128906 230.277344 62.40625 230.742188 62.707031 231.191406 C 63.007812 231.640625 63.328125 232.074219 63.671875 232.492188 C 64.015625 232.910156 64.378906 233.3125 64.761719 233.691406 C 65.144531 234.074219 65.542969 234.4375 65.960938 234.78125 C 66.378906 235.125 66.8125 235.445312 67.261719 235.746094 C 67.710938 236.046875 68.175781 236.324219 68.652344 236.582031 C 69.128906 236.835938 69.617188 237.066406 70.117188 237.273438 C 70.617188 237.480469 71.125 237.664062 71.644531 237.820312 C 72.160156 237.980469 72.683594 238.109375 73.214844 238.214844 C 73.746094 238.324219 74.277344 238.402344 74.816406 238.457031 C 75.355469 238.507812 75.894531 238.535156 76.4375 238.535156 L 223.578125 238.535156 C 224.117188 238.535156 224.65625 238.507812 225.195312 238.457031 C 225.734375 238.402344 226.269531 238.324219 226.796875 238.214844 C 227.328125 238.109375 227.851562 237.980469 228.371094 237.820312 C 228.886719 237.664062 229.394531 237.480469 229.894531 237.273438 C 230.394531 237.066406 230.882812 236.835938 231.359375 236.582031 C 231.835938 236.324219 232.300781 236.046875 232.75 235.746094 C 233.199219 235.445312 233.632812 235.125 234.050781 234.78125 C 234.46875 234.4375 234.871094 234.074219 235.253906 233.691406 C 235.632812 233.3125 235.996094 232.910156 236.339844 232.492188 C 236.683594 232.074219 237.003906 231.640625 237.304688 231.191406 C 237.605469 230.742188 237.882812 230.277344 238.140625 229.800781 C 238.394531 229.324219 238.625 228.835938 238.832031 228.335938 C 239.039062 227.835938 239.222656 227.328125 239.378906 226.8125 C 239.539062 226.292969 239.667969 225.769531 239.777344 225.238281 C 239.882812 224.707031 239.960938 224.175781 240.015625 223.636719 C 240.066406 223.097656 240.09375 222.558594 240.097656 222.019531 L 240.097656 101.933594 C 240.09375 101.394531 240.070312 100.851562 240.015625 100.316406 C 239.960938 99.777344 239.882812 99.242188 239.777344 98.710938 C 239.671875 98.179688 239.539062 97.65625 239.382812 97.140625 C 239.222656 96.621094 239.042969 96.113281 238.835938 95.613281 C 238.628906 95.113281 238.394531 94.625 238.140625 94.148438 C 237.886719 93.671875 237.609375 93.207031 237.308594 92.757812 C 237.007812 92.308594 236.683594 91.875 236.34375 91.457031 C 236 91.039062 235.636719 90.640625 235.253906 90.257812 C 234.871094 89.875 234.472656 89.511719 234.050781 89.167969 C 233.632812 88.824219 233.199219 88.503906 232.75 88.203125 C 232.300781 87.902344 231.839844 87.621094 231.359375 87.367188 C 230.882812 87.113281 230.394531 86.882812 229.894531 86.671875 C 229.398438 86.464844 228.886719 86.285156 228.371094 86.125 C 227.851562 85.96875 227.328125 85.835938 226.796875 85.730469 C 226.269531 85.625 225.734375 85.546875 225.195312 85.492188 C 224.65625 85.4375 224.117188 85.410156 223.578125 85.410156 Z M 190.3125 71.425781 C 190.3125 71.035156 190.351562 70.648438 190.425781 70.261719 C 190.503906 69.878906 190.617188 69.507812 190.765625 69.148438 C 190.914062 68.789062 191.097656 68.445312 191.316406 68.121094 C 191.53125 67.792969 191.777344 67.496094 192.054688 67.21875 C 192.332031 66.941406 192.632812 66.695312 192.957031 66.476562 C 193.28125 66.261719 193.621094 66.078125 193.984375 65.925781 C 194.34375 65.777344 194.714844 65.664062 195.097656 65.585938 C 195.480469 65.507812 195.867188 65.46875 196.257812 65.46875 C 196.648438 65.46875 197.035156 65.507812 197.417969 65.582031 C 197.804688 65.660156 198.175781 65.773438 198.535156 65.921875 C 198.898438 66.074219 199.238281 66.257812 199.566406 66.472656 C 199.890625 66.691406 200.191406 66.9375 200.46875 67.214844 C 200.742188 67.492188 200.988281 67.792969 201.207031 68.117188 C 201.425781 68.441406 201.605469 68.785156 201.757812 69.144531 C 201.90625 69.507812 202.019531 69.878906 202.09375 70.261719 C 202.171875 70.644531 202.210938 71.03125 202.210938 71.425781 L 202.210938 92.0625 C 202.21875 92.460938 202.191406 92.855469 202.121094 93.246094 C 202.050781 93.636719 201.945312 94.019531 201.800781 94.386719 C 201.65625 94.757812 201.476562 95.109375 201.257812 95.445312 C 201.042969 95.777344 200.796875 96.085938 200.519531 96.371094 C 200.242188 96.65625 199.941406 96.910156 199.613281 97.132812 C 199.285156 97.355469 198.9375 97.546875 198.570312 97.699219 C 198.203125 97.855469 197.828125 97.972656 197.4375 98.050781 C 197.046875 98.128906 196.652344 98.167969 196.257812 98.167969 C 195.859375 98.167969 195.464844 98.128906 195.078125 98.050781 C 194.6875 97.972656 194.308594 97.855469 193.941406 97.699219 C 193.578125 97.546875 193.230469 97.355469 192.902344 97.132812 C 192.574219 96.910156 192.269531 96.65625 191.992188 96.371094 C 191.714844 96.085938 191.46875 95.777344 191.253906 95.445312 C 191.039062 95.109375 190.859375 94.757812 190.710938 94.386719 C 190.566406 94.019531 190.460938 93.636719 190.390625 93.246094 C 190.324219 92.855469 190.292969 92.460938 190.304688 92.0625 L 190.304688 71.425781 Z M 97.820312 71.425781 C 97.8125 71.027344 97.839844 70.632812 97.910156 70.242188 C 97.980469 69.851562 98.085938 69.46875 98.230469 69.097656 C 98.375 68.730469 98.558594 68.378906 98.773438 68.042969 C 98.988281 67.710938 99.234375 67.402344 99.511719 67.117188 C 99.789062 66.832031 100.09375 66.578125 100.421875 66.355469 C 100.75 66.128906 101.09375 65.941406 101.460938 65.785156 C 101.828125 65.632812 102.207031 65.515625 102.59375 65.4375 C 102.984375 65.359375 103.378906 65.320312 103.773438 65.320312 C 104.171875 65.320312 104.566406 65.359375 104.957031 65.4375 C 105.34375 65.515625 105.722656 65.632812 106.089844 65.785156 C 106.453125 65.941406 106.800781 66.128906 107.128906 66.355469 C 107.457031 66.578125 107.761719 66.832031 108.039062 67.117188 C 108.316406 67.402344 108.5625 67.710938 108.777344 68.042969 C 108.992188 68.378906 109.175781 68.730469 109.320312 69.097656 C 109.464844 69.46875 109.570312 69.851562 109.640625 70.242188 C 109.707031 70.632812 109.738281 71.027344 109.726562 71.425781 L 109.726562 92.0625 C 109.738281 92.460938 109.707031 92.855469 109.640625 93.246094 C 109.570312 93.636719 109.464844 94.019531 109.320312 94.386719 C 109.175781 94.757812 108.992188 95.109375 108.777344 95.445312 C 108.5625 95.777344 108.316406 96.085938 108.039062 96.371094 C 107.761719 96.65625 107.457031 96.910156 107.128906 97.132812 C 106.800781 97.355469 106.453125 97.546875 106.089844 97.699219 C 105.722656 97.855469 105.34375 97.972656 104.957031 98.050781 C 104.566406 98.128906 104.171875 98.167969 103.773438 98.167969 C 103.378906 98.167969 102.984375 98.128906 102.59375 98.050781 C 102.207031 97.972656 101.828125 97.855469 101.460938 97.699219 C 101.09375 97.546875 100.75 97.355469 100.421875 97.132812 C 100.09375 96.910156 99.789062 96.65625 99.511719 96.371094 C 99.234375 96.085938 98.988281 95.777344 98.773438 95.445312 C 98.558594 95.109375 98.375 94.757812 98.230469 94.386719 C 98.085938 94.019531 97.980469 93.636719 97.910156 93.246094 C 97.839844 92.855469 97.8125 92.460938 97.820312 92.0625 Z M 63.328125 101.933594 C 63.328125 101.074219 63.414062 100.222656 63.582031 99.378906 C 63.75 98.535156 64 97.714844 64.328125 96.917969 C 64.660156 96.125 65.0625 95.367188 65.539062 94.652344 C 66.019531 93.9375 66.5625 93.277344 67.171875 92.667969 C 67.777344 92.058594 68.441406 91.515625 69.15625 91.035156 C 69.871094 90.558594 70.625 90.15625 71.421875 89.824219 C 72.214844 89.496094 73.035156 89.246094 73.878906 89.078125 C 74.722656 88.910156 75.574219 88.824219 76.4375 88.824219 L 94.410156 88.824219 L 94.410156 92.0625 C 94.398438 92.6875 94.445312 93.304688 94.558594 93.917969 C 94.667969 94.53125 94.839844 95.125 95.070312 95.707031 C 95.296875 96.285156 95.582031 96.835938 95.921875 97.355469 C 96.261719 97.878906 96.648438 98.363281 97.085938 98.808594 C 97.523438 99.253906 97.996094 99.648438 98.511719 100 C 99.027344 100.351562 99.574219 100.644531 100.148438 100.886719 C 100.722656 101.128906 101.3125 101.308594 101.925781 101.433594 C 102.535156 101.554688 103.152344 101.617188 103.773438 101.617188 C 104.398438 101.617188 105.015625 101.554688 105.625 101.433594 C 106.234375 101.308594 106.828125 101.128906 107.402344 100.886719 C 107.976562 100.644531 108.523438 100.351562 109.039062 100 C 109.554688 99.648438 110.027344 99.253906 110.464844 98.808594 C 110.902344 98.363281 111.289062 97.878906 111.628906 97.355469 C 111.96875 96.835938 112.253906 96.285156 112.480469 95.707031 C 112.710938 95.125 112.882812 94.53125 112.992188 93.917969 C 113.101562 93.304688 113.152344 92.6875 113.140625 92.0625 L 113.140625 88.824219 L 186.898438 88.824219 L 186.898438 92.0625 C 186.886719 92.6875 186.9375 93.304688 187.046875 93.917969 C 187.15625 94.53125 187.328125 95.125 187.558594 95.707031 C 187.789062 96.285156 188.070312 96.835938 188.410156 97.355469 C 188.75 97.878906 189.140625 98.363281 189.574219 98.808594 C 190.011719 99.253906 190.488281 99.648438 191 100 C 191.515625 100.351562 192.0625 100.644531 192.636719 100.886719 C 193.210938 101.128906 193.804688 101.308594 194.414062 101.433594 C 195.023438 101.554688 195.640625 101.617188 196.265625 101.617188 C 196.886719 101.617188 197.503906 101.554688 198.113281 101.433594 C 198.726562 101.308594 199.316406 101.128906 199.890625 100.886719 C 200.464844 100.644531 201.011719 100.351562 201.527344 100 C 202.042969 99.648438 202.515625 99.253906 202.953125 98.808594 C 203.390625 98.363281 203.777344 97.878906 204.117188 97.355469 C 204.457031 96.835938 204.742188 96.285156 204.96875 95.707031 C 205.199219 95.125 205.371094 94.53125 205.480469 93.917969 C 205.59375 93.304688 205.640625 92.6875 205.628906 92.0625 L 205.628906 88.824219 L 223.585938 88.824219 C 224.445312 88.824219 225.296875 88.910156 226.140625 89.078125 C 226.984375 89.246094 227.804688 89.496094 228.597656 89.824219 C 229.394531 90.15625 230.148438 90.558594 230.863281 91.035156 C 231.578125 91.515625 232.242188 92.058594 232.851562 92.667969 C 233.457031 93.277344 234 93.9375 234.480469 94.652344 C 234.957031 95.367188 235.363281 96.125 235.691406 96.917969 C 236.019531 97.714844 236.269531 98.535156 236.4375 99.378906 C 236.605469 100.222656 236.691406 101.074219 236.691406 101.933594 L 236.691406 120.351562 L 63.328125 120.351562 Z M 223.578125 235.109375 L 76.4375 235.109375 C 75.578125 235.109375 74.726562 235.023438 73.882812 234.855469 C 73.039062 234.6875 72.21875 234.4375 71.425781 234.109375 C 70.632812 233.78125 69.875 233.378906 69.160156 232.898438 C 68.445312 232.421875 67.785156 231.878906 67.175781 231.273438 C 66.570312 230.664062 66.027344 230.003906 65.546875 229.289062 C 65.070312 228.574219 64.664062 227.820312 64.335938 227.027344 C 64.003906 226.234375 63.753906 225.414062 63.585938 224.570312 C 63.414062 223.730469 63.332031 222.878906 63.328125 222.019531 L 63.328125 123.761719 L 236.683594 123.761719 L 236.683594 222.019531 C 236.683594 222.878906 236.597656 223.730469 236.425781 224.570312 C 236.257812 225.414062 236.007812 226.234375 235.679688 227.027344 C 235.347656 227.820312 234.945312 228.574219 234.464844 229.289062 C 233.988281 230.003906 233.445312 230.664062 232.835938 231.273438 C 232.226562 231.878906 231.566406 232.421875 230.851562 232.898438 C 230.136719 233.378906 229.382812 233.78125 228.585938 234.109375 C 227.792969 234.4375 226.972656 234.6875 226.132812 234.855469 C 225.289062 235.023438 224.4375 235.109375 223.578125 235.109375 Z M 223.578125 235.109375 " fill-opacity="1" fill-rule="nonzero"/></g><g clip-path="url(#3511c7b734)"><path fill="#ffffff" d="M 220.09375 88.460938 L 202.988281 88.460938 L 202.988281 75.136719 C 203 74.542969 202.953125 73.953125 202.847656 73.371094 C 202.742188 72.785156 202.578125 72.21875 202.359375 71.667969 C 202.140625 71.117188 201.871094 70.589844 201.546875 70.09375 C 201.222656 69.597656 200.855469 69.136719 200.4375 68.710938 C 200.023438 68.289062 199.570312 67.910156 199.078125 67.574219 C 198.589844 67.242188 198.070312 66.960938 197.523438 66.730469 C 196.976562 66.5 196.410156 66.328125 195.828125 66.210938 C 195.246094 66.09375 194.660156 66.035156 194.066406 66.035156 C 193.472656 66.035156 192.882812 66.09375 192.300781 66.210938 C 191.722656 66.328125 191.15625 66.5 190.609375 66.730469 C 190.0625 66.960938 189.542969 67.242188 189.050781 67.574219 C 188.5625 67.910156 188.109375 68.289062 187.691406 68.710938 C 187.277344 69.136719 186.90625 69.597656 186.585938 70.09375 C 186.261719 70.589844 185.988281 71.117188 185.769531 71.667969 C 185.550781 72.21875 185.390625 72.785156 185.285156 73.371094 C 185.179688 73.953125 185.132812 74.542969 185.144531 75.136719 L 185.144531 88.460938 L 114.859375 88.460938 L 114.859375 75.136719 C 114.871094 74.542969 114.824219 73.953125 114.71875 73.371094 C 114.613281 72.785156 114.453125 72.21875 114.234375 71.667969 C 114.015625 71.117188 113.746094 70.589844 113.421875 70.09375 C 113.097656 69.597656 112.726562 69.136719 112.3125 68.710938 C 111.898438 68.289062 111.445312 67.910156 110.953125 67.574219 C 110.460938 67.242188 109.941406 66.960938 109.394531 66.730469 C 108.847656 66.5 108.285156 66.328125 107.703125 66.210938 C 107.121094 66.09375 106.53125 66.035156 105.9375 66.035156 C 105.347656 66.035156 104.757812 66.09375 104.175781 66.210938 C 103.59375 66.328125 103.03125 66.5 102.484375 66.730469 C 101.9375 66.960938 101.417969 67.242188 100.925781 67.574219 C 100.433594 67.910156 99.980469 68.289062 99.566406 68.710938 C 99.152344 69.136719 98.78125 69.597656 98.457031 70.09375 C 98.132812 70.589844 97.863281 71.117188 97.644531 71.667969 C 97.425781 72.21875 97.261719 72.785156 97.15625 73.371094 C 97.050781 73.953125 97.003906 74.542969 97.019531 75.136719 L 97.019531 88.460938 L 79.910156 88.460938 C 78.878906 88.464844 77.855469 88.566406 76.839844 88.769531 C 75.828125 88.96875 74.84375 89.269531 73.890625 89.664062 C 72.9375 90.0625 72.03125 90.546875 71.171875 91.121094 C 70.3125 91.695312 69.515625 92.347656 68.785156 93.078125 C 68.054688 93.808594 67.402344 94.605469 66.828125 95.464844 C 66.253906 96.320312 65.769531 97.230469 65.375 98.183594 C 64.980469 99.136719 64.679688 100.121094 64.476562 101.132812 C 64.277344 102.148438 64.175781 103.171875 64.171875 104.203125 L 64.171875 218.609375 C 64.175781 219.644531 64.277344 220.664062 64.476562 221.679688 C 64.679688 222.691406 64.980469 223.675781 65.375 224.628906 C 65.773438 225.582031 66.257812 226.492188 66.832031 227.347656 C 67.40625 228.207031 68.058594 229.003906 68.789062 229.734375 C 69.519531 230.464844 70.3125 231.117188 71.171875 231.691406 C 72.03125 232.265625 72.9375 232.75 73.890625 233.144531 C 74.84375 233.539062 75.828125 233.839844 76.84375 234.042969 C 77.855469 234.246094 78.878906 234.347656 79.910156 234.347656 L 220.09375 234.347656 C 221.128906 234.347656 222.148438 234.246094 223.164062 234.042969 C 224.175781 233.839844 225.160156 233.539062 226.113281 233.144531 C 227.066406 232.75 227.972656 232.265625 228.832031 231.691406 C 229.691406 231.117188 230.488281 230.464844 231.21875 229.734375 C 231.949219 229.003906 232.601562 228.207031 233.175781 227.347656 C 233.75 226.492188 234.234375 225.582031 234.628906 224.628906 C 235.023438 223.675781 235.324219 222.691406 235.527344 221.679688 C 235.730469 220.664062 235.832031 219.644531 235.832031 218.609375 L 235.832031 104.203125 C 235.832031 103.171875 235.730469 102.148438 235.527344 101.132812 C 235.324219 100.121094 235.027344 99.136719 234.628906 98.183594 C 234.234375 97.230469 233.75 96.320312 233.175781 95.464844 C 232.601562 94.605469 231.949219 93.808594 231.21875 93.078125 C 230.488281 92.347656 229.691406 91.695312 228.835938 91.121094 C 227.976562 90.546875 227.070312 90.0625 226.113281 89.664062 C 225.160156 89.269531 224.175781 88.96875 223.164062 88.769531 C 222.148438 88.566406 221.128906 88.464844 220.09375 88.460938 Z M 188.402344 75.136719 C 188.402344 74.765625 188.4375 74.394531 188.511719 74.03125 C 188.585938 73.667969 188.691406 73.3125 188.835938 72.96875 C 188.976562 72.625 189.152344 72.296875 189.359375 71.988281 C 189.566406 71.679688 189.800781 71.394531 190.0625 71.128906 C 190.324219 70.867188 190.613281 70.632812 190.921875 70.425781 C 191.230469 70.21875 191.554688 70.042969 191.898438 69.898438 C 192.242188 69.757812 192.597656 69.648438 192.960938 69.574219 C 193.328125 69.5 193.695312 69.464844 194.066406 69.464844 C 194.441406 69.464844 194.808594 69.5 195.171875 69.574219 C 195.539062 69.644531 195.894531 69.753906 196.238281 69.898438 C 196.582031 70.039062 196.90625 70.214844 197.21875 70.421875 C 197.527344 70.628906 197.8125 70.863281 198.078125 71.125 C 198.339844 71.390625 198.574219 71.675781 198.78125 71.984375 C 198.988281 72.296875 199.164062 72.621094 199.304688 72.964844 C 199.449219 73.3125 199.554688 73.664062 199.628906 74.03125 C 199.699219 74.394531 199.738281 74.765625 199.738281 75.136719 L 199.738281 94.800781 C 199.746094 95.179688 199.71875 95.554688 199.652344 95.925781 C 199.585938 96.300781 199.484375 96.664062 199.347656 97.015625 C 199.210938 97.367188 199.039062 97.703125 198.832031 98.019531 C 198.625 98.339844 198.390625 98.632812 198.128906 98.90625 C 197.863281 99.175781 197.574219 99.417969 197.261719 99.628906 C 196.949219 99.84375 196.617188 100.023438 196.269531 100.171875 C 195.921875 100.320312 195.5625 100.429688 195.191406 100.503906 C 194.820312 100.578125 194.445312 100.617188 194.066406 100.617188 C 193.6875 100.617188 193.3125 100.578125 192.941406 100.503906 C 192.570312 100.429688 192.210938 100.320312 191.863281 100.171875 C 191.511719 100.023438 191.183594 99.84375 190.867188 99.628906 C 190.554688 99.417969 190.269531 99.175781 190.003906 98.90625 C 189.738281 98.632812 189.503906 98.339844 189.300781 98.019531 C 189.09375 97.703125 188.921875 97.367188 188.785156 97.015625 C 188.644531 96.664062 188.542969 96.300781 188.476562 95.925781 C 188.414062 95.554688 188.382812 95.179688 188.394531 94.800781 L 188.394531 75.136719 Z M 100.285156 75.136719 C 100.277344 74.757812 100.304688 74.382812 100.371094 74.011719 C 100.4375 73.636719 100.539062 73.273438 100.675781 72.921875 C 100.8125 72.570312 100.984375 72.234375 101.191406 71.917969 C 101.394531 71.597656 101.632812 71.304688 101.894531 71.03125 C 102.160156 70.761719 102.449219 70.519531 102.761719 70.308594 C 103.074219 70.09375 103.40625 69.914062 103.753906 69.765625 C 104.101562 69.617188 104.460938 69.507812 104.832031 69.433594 C 105.203125 69.359375 105.578125 69.320312 105.957031 69.320312 C 106.335938 69.320312 106.710938 69.359375 107.082031 69.433594 C 107.453125 69.507812 107.8125 69.617188 108.160156 69.765625 C 108.511719 69.914062 108.839844 70.09375 109.152344 70.308594 C 109.464844 70.519531 109.753906 70.761719 110.019531 71.03125 C 110.285156 71.304688 110.519531 71.597656 110.722656 71.917969 C 110.929688 72.234375 111.101562 72.570312 111.238281 72.921875 C 111.378906 73.273438 111.480469 73.636719 111.542969 74.011719 C 111.609375 74.382812 111.636719 74.757812 111.628906 75.136719 L 111.628906 94.800781 C 111.636719 95.179688 111.609375 95.554688 111.542969 95.925781 C 111.480469 96.300781 111.378906 96.664062 111.238281 97.015625 C 111.101562 97.367188 110.929688 97.703125 110.722656 98.019531 C 110.519531 98.339844 110.285156 98.632812 110.019531 98.90625 C 109.753906 99.175781 109.464844 99.417969 109.152344 99.628906 C 108.839844 99.84375 108.511719 100.023438 108.160156 100.171875 C 107.8125 100.316406 107.453125 100.429688 107.082031 100.503906 C 106.710938 100.578125 106.335938 100.617188 105.957031 100.617188 C 105.578125 100.617188 105.203125 100.578125 104.832031 100.503906 C 104.460938 100.429688 104.101562 100.316406 103.753906 100.171875 C 103.40625 100.023438 103.074219 99.84375 102.761719 99.628906 C 102.449219 99.417969 102.160156 99.175781 101.894531 98.90625 C 101.632812 98.632812 101.394531 98.339844 101.191406 98.019531 C 100.984375 97.703125 100.8125 97.367188 100.675781 97.015625 C 100.539062 96.664062 100.4375 96.300781 100.371094 95.925781 C 100.304688 95.554688 100.277344 95.179688 100.285156 94.800781 Z M 67.421875 104.203125 C 67.425781 103.382812 67.503906 102.574219 67.664062 101.769531 C 67.824219 100.964844 68.0625 100.183594 68.375 99.425781 C 68.691406 98.667969 69.074219 97.949219 69.53125 97.269531 C 69.988281 96.585938 70.503906 95.957031 71.082031 95.375 C 71.664062 94.796875 72.292969 94.277344 72.976562 93.824219 C 73.65625 93.367188 74.375 92.980469 75.132812 92.667969 C 75.890625 92.351562 76.671875 92.117188 77.476562 91.957031 C 78.277344 91.792969 79.089844 91.714844 79.910156 91.710938 L 97.035156 91.710938 L 97.035156 94.800781 C 97.023438 95.394531 97.070312 95.984375 97.175781 96.566406 C 97.28125 97.152344 97.445312 97.71875 97.664062 98.269531 C 97.882812 98.820312 98.152344 99.347656 98.476562 99.84375 C 98.800781 100.339844 99.167969 100.800781 99.585938 101.226562 C 100 101.648438 100.453125 102.027344 100.945312 102.363281 C 101.433594 102.695312 101.953125 102.976562 102.5 103.207031 C 103.046875 103.4375 103.613281 103.609375 104.195312 103.726562 C 104.777344 103.84375 105.363281 103.902344 105.957031 103.902344 C 106.550781 103.902344 107.136719 103.84375 107.71875 103.726562 C 108.300781 103.609375 108.867188 103.4375 109.414062 103.207031 C 109.960938 102.976562 110.480469 102.695312 110.972656 102.363281 C 111.460938 102.027344 111.914062 101.648438 112.332031 101.226562 C 112.746094 100.800781 113.117188 100.339844 113.4375 99.84375 C 113.761719 99.347656 114.035156 98.820312 114.253906 98.269531 C 114.472656 97.71875 114.632812 97.152344 114.738281 96.566406 C 114.84375 95.984375 114.890625 95.394531 114.878906 94.800781 L 114.878906 91.710938 L 185.152344 91.710938 L 185.152344 94.800781 C 185.140625 95.394531 185.1875 95.984375 185.292969 96.566406 C 185.398438 97.152344 185.558594 97.71875 185.777344 98.269531 C 185.996094 98.820312 186.269531 99.347656 186.589844 99.84375 C 186.914062 100.339844 187.285156 100.800781 187.699219 101.226562 C 188.113281 101.648438 188.570312 102.027344 189.058594 102.363281 C 189.550781 102.695312 190.070312 102.976562 190.617188 103.207031 C 191.164062 103.4375 191.726562 103.609375 192.308594 103.726562 C 192.890625 103.84375 193.480469 103.902344 194.074219 103.902344 C 194.667969 103.902344 195.253906 103.84375 195.835938 103.726562 C 196.417969 103.609375 196.980469 103.4375 197.527344 103.207031 C 198.078125 102.976562 198.59375 102.695312 199.085938 102.363281 C 199.578125 102.027344 200.03125 101.648438 200.445312 101.226562 C 200.859375 100.800781 201.230469 100.339844 201.554688 99.84375 C 201.878906 99.347656 202.148438 98.820312 202.367188 98.269531 C 202.585938 97.71875 202.75 97.152344 202.855469 96.566406 C 202.960938 95.984375 203.007812 95.394531 202.996094 94.800781 L 202.996094 91.710938 L 220.101562 91.710938 C 220.921875 91.714844 221.734375 91.792969 222.535156 91.957031 C 223.339844 92.117188 224.121094 92.351562 224.878906 92.667969 C 225.636719 92.980469 226.355469 93.367188 227.035156 93.824219 C 227.71875 94.277344 228.347656 94.796875 228.929688 95.375 C 229.507812 95.957031 230.027344 96.585938 230.480469 97.269531 C 230.9375 97.949219 231.320312 98.667969 231.636719 99.425781 C 231.949219 100.183594 232.1875 100.964844 232.347656 101.769531 C 232.507812 102.574219 232.589844 103.382812 232.589844 104.203125 L 232.589844 121.75 L 67.421875 121.75 Z M 220.09375 231.082031 L 79.910156 231.082031 C 79.09375 231.082031 78.28125 231 77.476562 230.839844 C 76.675781 230.679688 75.894531 230.445312 75.136719 230.128906 C 74.382812 229.816406 73.664062 229.433594 72.980469 228.976562 C 72.300781 228.523438 71.667969 228.003906 71.089844 227.425781 C 70.511719 226.847656 69.992188 226.21875 69.539062 225.539062 C 69.082031 224.855469 68.695312 224.136719 68.382812 223.382812 C 68.066406 222.625 67.828125 221.847656 67.667969 221.042969 C 67.507812 220.238281 67.425781 219.429688 67.421875 218.609375 L 67.421875 125 L 232.582031 125 L 232.582031 218.609375 C 232.578125 219.429688 232.5 220.238281 232.335938 221.042969 C 232.175781 221.847656 231.9375 222.625 231.625 223.382812 C 231.308594 224.136719 230.921875 224.855469 230.46875 225.539062 C 230.011719 226.21875 229.496094 226.847656 228.914062 227.425781 C 228.335938 228.003906 227.703125 228.523438 227.023438 228.976562 C 226.34375 229.433594 225.625 229.816406 224.867188 230.128906 C 224.109375 230.445312 223.332031 230.679688 222.527344 230.839844 C 221.722656 231 220.914062 231.082031 220.09375 231.082031 Z M 220.09375 231.082031 " fill-opacity="1" fill-rule="nonzero"/></g></svg>